<svg xmlns="http://www.w3.org/2000/svg" width="77.493" height="65.771" viewBox="0 0 77.493 65.771"><defs><style>.a{fill:#40c558;}</style></defs><g transform="translate(-526.71 -234.456)"><path class="a" d="M587.6,285.72A16.607,16.607,0,1,1,604.2,269.113,16.625,16.625,0,0,1,587.6,285.72Zm0-30.214A13.607,13.607,0,1,0,601.2,269.113,13.622,13.622,0,0,0,587.6,255.506Z"/><path class="a" d="M591.6,275.233l-6.182-6.18v-8.8h3v7.552l5.3,5.3Z"/><path class="a" d="M559.572,291.749a24.415,24.415,0,1,1,14.442-44.122,24.593,24.593,0,0,1,6.962,7.9l-2.626,1.451a21.418,21.418,0,1,0-1.456,23l2.421,1.77A24.4,24.4,0,0,1,559.572,291.749Z"/><path class="a" d="M559.6,276.668a9.327,9.327,0,1,1,9.326-9.327A9.337,9.337,0,0,1,559.6,276.668Zm0-15.654a6.327,6.327,0,1,0,6.326,6.327A6.334,6.334,0,0,0,559.6,261.014Z"/><rect class="a" width="3" height="9.965" transform="translate(558.097 234.456)"/><rect class="a" width="3" height="9.965" transform="translate(558.097 290.262)"/><rect class="a" width="9.965" height="3" transform="translate(526.71 265.842)"/></g></svg>