<svg xmlns="http://www.w3.org/2000/svg" width="102.477" height="40.676" viewBox="0 0 102.477 40.676"><defs><style>.a{fill:#3b97ff;}.b{fill:#ecefff;}</style></defs><g transform="translate(-814.854 -2209.603)"><path class="a" d="M897.583,2231.182c-1.255,1.323-2.486,2.634-3.737,3.926a3.208,3.208,0,0,1-.7.428,2.871,2.871,0,0,1-.235-.77c-.021-1.755-.038-3.512,0-5.266a1,1,0,0,0-.725-1.137c-2.017-.816-4.008-1.7-6-2.567a2.372,2.372,0,0,1-.529-.451,2.205,2.205,0,0,1,.539-.435q15.188-5.578,30.386-11.127a2.614,2.614,0,0,1,.749-.042,2.8,2.8,0,0,1-.216.778q-6.2,9.8-12.419,19.584c-.287.454-.516.555-1.015.281-1.771-.972-3.57-1.894-5.359-2.832C898.09,2231.425,897.849,2231.313,897.583,2231.182Zm18.546-16.373-.085-.11-29.115,10.656c2.067.891,3.968,1.692,5.85,2.535a1.141,1.141,0,0,0,1.12-.048q5.456-2.868,10.928-5.706a1.97,1.97,0,0,1,.549-.242.491.491,0,0,1,.383.167c.051.062,0,.258-.065.352a2.4,2.4,0,0,1-.381.379q-3.8,3.452-7.6,6.9a4.988,4.988,0,0,1-.653.412l7.01,3.687Zm-13.22,9.237-.051-.077c-.173.081-.349.156-.518.244-2.727,1.42-5.448,2.854-8.187,4.25a.918.918,0,0,0-.578.988c.035,1.146.013,2.3.013,3.442v1.5l3.318-3.511c-.853-.635-.852-.633-.079-1.324q.88-.788,1.755-1.58,2.165-1.965,4.327-3.932Z"/><path class="a" d="M902.909,2224.047l-4.327,3.93q-.874.794-1.755,1.58c-.773.69-.774.689.079,1.324l-3.318,3.511v-1.5c0-1.148.022-2.3-.013-3.442a.917.917,0,0,1,.578-.988c2.74-1.4,5.46-2.83,8.187-4.25.169-.088.345-.163.518-.244Z"/><path class="a" d="M841.1,2237.93q-.8,0-1.585-.012l.015-1q.783.012,1.57.012h.418l.008,1Zm2.433-.025-.019-1q1-.019,1.991-.055l.035,1Q844.547,2237.885,843.537,2237.905Zm-6.031-.039c-.673-.025-1.345-.057-2.01-.1l.063-1q.985.063,1.984.1Zm10.04-.1-.047-1q1.006-.048,1.993-.1l.057,1C848.888,2237.7,848.219,2237.735,847.546,2237.767Zm-14.059-.155c-.675-.062-1.344-.133-2.006-.217l.125-.993q.977.123,1.973.214Zm18.064-.071-.065-1q1.012-.066,1.993-.137l.072,1Q852.567,2237.474,851.551,2237.541Zm4-.281-.076-1,2-.15.074,1Zm-26.066-.157q-1.011-.17-1.989-.38l.213-.977q.954.207,1.94.37Zm30.054-.138-.072-1c.7-.05,1.365-.094,2-.132l.06,1C860.894,2236.871,860.229,2236.915,859.536,2236.965Zm3.978-.228-.039-1c.28-.01.549-.018.81-.023.385-.008.78-.022,1.187-.039l.045,1c-.414.019-.82.033-1.212.041Q863.922,2236.721,863.514,2236.737Zm4.019-.2-.078-1q.97-.076,1.981-.184l.105.994C868.858,2236.429,868.187,2236.491,867.533,2236.542Zm-42.009-.3c-.679-.188-1.334-.391-1.942-.6l.33-.944c.589.206,1.221.4,1.878.584Zm46.016-.116-.125-.992q.981-.123,1.978-.265l.14.99C872.864,2235.953,872.2,2236.043,871.54,2236.125Zm3.982-.562-.154-.989c.658-.1,1.317-.209,1.971-.319l.166.986Q876.518,2235.408,875.522,2235.563Zm3.96-.665-.175-.984c.665-.119,1.322-.239,1.966-.36l.184.982C880.811,2234.657,880.151,2234.779,879.482,2234.9Zm-57.8-.013a20.491,20.491,0,0,1-1.829-.926l.5-.867c.543.311,1.128.607,1.739.881Zm61.745-.727-.194-.98q1.012-.2,1.96-.4l.2.981C884.765,2233.894,884.106,2234.025,883.43,2234.158Zm3.932-.8-.209-.979c.7-.148,1.356-.291,1.954-.424l.217.977C888.722,2233.061,888.064,2233.2,887.362,2233.354Zm-69.227-.523c-.385-.288-.76-.6-1.113-.921-.162-.148-.312-.295-.455-.442l.719-.7c.129.134.266.267.411.4.328.3.678.589,1.037.857Zm73.147-.345-.222-.974c1.231-.282,1.949-.456,1.951-.456l.236.97S892.524,2232.2,891.282,2232.486Zm-75.975-2.756a4.221,4.221,0,0,1-.453-1.863q0-.168.015-.336l1,.09c-.008.082-.011.165-.011.247a3.234,3.234,0,0,0,.351,1.423ZM816.46,2226l-.84-.541a8.212,8.212,0,0,1,1.4-1.6l.672.741A7.22,7.22,0,0,0,816.46,2226Zm2.755-2.575-.557-.83c.527-.354,1.117-.71,1.754-1.058l.481.877C820.281,2222.749,819.717,2223.089,819.215,2223.426Zm3.438-1.9-.424-.906c.6-.281,1.224-.553,1.857-.814l.383.923C823.85,2220.987,823.242,2221.253,822.653,2221.528Zm3.664-1.518-.347-.938c.634-.235,1.27-.46,1.9-.673l.32.948C827.57,2219.558,826.941,2219.778,826.317,2220.01Zm3.772-1.276-.295-.955c.66-.2,1.307-.4,1.933-.575l.275.961C831.384,2218.343,830.743,2218.532,830.089,2218.734Zm3.837-1.1-.256-.967c.71-.188,1.367-.354,1.953-.5l.236.972C835.279,2217.287,834.628,2217.451,833.926,2217.637Zm3.881-.945-.217-.976c1.145-.253,1.146-.254,1.34-.1l-.633.774.32-.384.085.492C838.659,2216.51,838.339,2216.574,837.807,2216.692Z"/><circle class="b" cx="20" cy="20" r="20" transform="translate(833.271 2209.941)"/><path class="a" d="M853.271,2250.279a20.338,20.338,0,1,1,20.338-20.338A20.338,20.338,0,0,1,853.271,2250.279Zm0-39.049a18.711,18.711,0,1,0,18.711,18.711A18.711,18.711,0,0,0,853.271,2211.23Z"/><path class="a" d="M850.356,2237.5l-6.987-6.986,1.15-1.15,5.837,5.835,11.737-11.738,1.15,1.15Z"/></g></svg>