<svg xmlns="http://www.w3.org/2000/svg" width="71.688" height="60.893" viewBox="0 0 71.688 60.893"><defs><style>.a{isolation:isolate;}.b{fill:#2785a2;}</style></defs><g transform="translate(-656.71 -236.456)"><g class="a"><g class="a"><path class="b" d="M712.937,272.726a1.231,1.231,0,1,1,1.275-1.231A1.236,1.236,0,0,1,712.937,272.726Zm-1.185-10.755h2.266l-.241,7.244h-1.77Z"/></g></g><path class="b" d="M712.945,283.919A15.453,15.453,0,1,1,728.4,268.466,15.471,15.471,0,0,1,712.945,283.919Zm0-27.906A12.453,12.453,0,1,0,725.4,268.466,12.468,12.468,0,0,0,712.945,256.013Z"/><path class="b" d="M687.043,289.5a22.67,22.67,0,1,1,13.427-40.972,22.822,22.822,0,0,1,6.461,7.336l-2.625,1.451a19.668,19.668,0,1,0-28.823,25.39,19.67,19.67,0,0,0,27.486-4.27l2.422,1.77a22.517,22.517,0,0,1-14.82,9.021A22.855,22.855,0,0,1,687.043,289.5Z"/><path class="b" d="M687.086,275.561a8.73,8.73,0,1,1,8.729-8.73A8.74,8.74,0,0,1,687.086,275.561Zm0-14.46a5.73,5.73,0,1,0,5.729,5.73A5.737,5.737,0,0,0,687.086,261.1Z"/><rect class="b" width="3" height="9.204" transform="translate(685.586 236.456)"/><rect class="b" width="3" height="9" transform="translate(685.625 288.349)"/><rect class="b" width="9.204" height="3" transform="translate(656.71 265.331)"/></g></svg>