<svg xmlns="http://www.w3.org/2000/svg" width="63.102" height="56.647" viewBox="0 0 63.102 56.647"><defs><style>.a{fill:#6942b8;}</style></defs><g transform="translate(-532.71 -357.456)"><path class="a" d="M589.787,385.708h-2V368.9a5.478,5.478,0,0,0-5.476-5.483H572.062v-2h10.25a7.477,7.477,0,0,1,7.475,7.468Z"/><rect class="a" width="13.97" height="2" transform="translate(553.762 361.415)"/><path class="a" d="M540.185,405.525a7.477,7.477,0,0,1-7.475-7.468V368.9a7.477,7.477,0,0,1,7.469-7.483h9.252v2h-9.238a5.476,5.476,0,0,0-5.483,5.482v29.145a5.475,5.475,0,0,0,5.476,5.483h26.168v2H540.185Z"/><rect class="a" width="55.076" height="2" transform="translate(533.71 373.09)"/><path class="a" d="M551.6,366.627a3.15,3.15,0,0,1-3.147-3.144v-2.876a3.154,3.154,0,0,1,3.144-3.151h0a3.152,3.152,0,0,1,3.155,3.147v2.873a3.181,3.181,0,0,1-3.14,3.151H551.6Zm.005-7.171h0a1.152,1.152,0,0,0-1.152,1.149v2.871a1.149,1.149,0,0,0,1.146,1.151,1.172,1.172,0,0,0,1.154-1.158v-2.862A1.15,1.15,0,0,0,551.61,359.456Z"/><path class="a" d="M569.908,366.627a3.148,3.148,0,0,1-3.147-3.144v-2.876a3.148,3.148,0,0,1,3.143-3.151h0a3.153,3.153,0,0,1,3.156,3.147v2.873a3.183,3.183,0,0,1-3.141,3.151h-.012Zm.005-7.171h0a1.147,1.147,0,0,0-1.151,1.149v2.871a1.147,1.147,0,0,0,1.145,1.151,1.172,1.172,0,0,0,1.155-1.158v-2.862A1.151,1.151,0,0,0,569.913,359.456Z"/><path class="a" d="M581.1,414.1a14.712,14.712,0,1,1,14.712-14.712A14.728,14.728,0,0,1,581.1,414.1Zm0-27.425a12.712,12.712,0,1,0,12.712,12.713A12.727,12.727,0,0,0,581.1,386.678Z"/><rect class="a" width="8.921" height="2" transform="translate(542.689 382.47)"/><rect class="a" width="8.921" height="2" transform="translate(555.712 382.47)"/><rect class="a" width="8.921" height="2" transform="translate(542.689 391.851)"/><rect class="a" width="8.921" height="2" transform="translate(555.712 391.851)"/><path class="a" d="M578.833,403.932,575,400.1l1.414-1.414,2.42,2.42,8.587-8.588,1.414,1.414Z"/></g></svg>