<svg xmlns="http://www.w3.org/2000/svg" xmlns:xlink="http://www.w3.org/1999/xlink" width="322" height="260.612" viewBox="0 0 322 260.612"><defs><style>.a,.az,.c,.f,.o{opacity:0.95;}.a{fill:url(#a);}.b{fill:#97bfe6;}.c{fill:url(#b);}.d{fill:#5196d1;}.e{opacity:0.16;fill:url(#c);}.f{fill:url(#d);}.g{fill:url(#e);}.h{fill:url(#f);}.i{fill:url(#g);}.j{fill:url(#h);}.k{fill:url(#i);}.l{fill:#fff;}.m{fill:url(#j);}.n{fill:url(#k);}.o{fill:url(#l);}.p{fill:#e65453;}.q{fill:#efaa87;}.r{fill:#d98b52;}.s{fill:#b94445;}.t{fill:#c68d71;}.u{fill:#efa986;}.v{fill:#17202e;}.w{fill:#f9a148;}.x{fill:#8f503b;}.y{fill:#64312a;}.z{fill:#323757;}.aa{fill:#fdcda3;}.ab{fill:#e45354;}.ac{fill:#a77961;}.ad{fill:#eceef8;}.ae{fill:#363b3d;}.af{fill:#82817f;}.ag{fill:#2e3133;}.ah{fill:#dfccc5;}.ai{fill:#4a5156;}.aj{fill:#262e3b;}.ak{fill:#3d4246;}.al{fill:#b4a6a1;}.am{fill:#52575d;}.an{fill:#f5e2d9;}.ao{fill:#ad9f99;}.ap{fill:#6a747b;}.aq{fill:#181929;}.ar{fill:#22243b;}.as{fill:#2a2c47;}.at{fill:#d0beb6;}.au{fill:#3b4048;}.av{fill:#23263d;}.aw{fill:#d44140;}.ax{fill:#eddad3;}.ay{fill:#8f5d27;}.ba{fill:url(#m);}.bb{fill:url(#n);}.bc{fill:url(#o);}.bd{fill:url(#p);}.be{fill:url(#q);}.bf{fill:url(#r);}.bg{fill:url(#s);}.bh{fill:url(#t);}.bi{fill:url(#u);}.bj{fill:url(#v);}.bk{fill:url(#w);}</style><linearGradient id="a" x1="0.355" y1="1.286" x2="0.393" y2="0.153" gradientUnits="objectBoundingBox"><stop offset="0" stop-color="#0e71eb"/><stop offset="1" stop-color="#d8e4f3"/></linearGradient><linearGradient id="b" x1="0.5" y1="1.147" x2="0.5" y2="0.24" gradientUnits="objectBoundingBox"><stop offset="0" stop-color="#8359c4"/><stop offset="1" stop-color="#eae9f5"/></linearGradient><linearGradient id="c" y1="0.5" x2="1" y2="0.5" gradientUnits="objectBoundingBox"><stop offset="0.005" stop-color="#202556"/><stop offset="1" stop-color="#5f64ad"/></linearGradient><linearGradient id="d" x1="0.5" y1="2.164" x2="0.5" y2="0.322" gradientUnits="objectBoundingBox"><stop offset="0" stop-color="#d2d7e0"/><stop offset="1" stop-color="#eae9f5"/></linearGradient><linearGradient id="e" x1="-129.437" y1="0.5" x2="-128.436" y2="0.5" xlink:href="#c"/><linearGradient id="f" x1="-69.78" y1="0.5" x2="-68.78" y2="0.5" xlink:href="#c"/><linearGradient id="g" x1="-93.071" y1="0.5" x2="-92.071" y2="0.5" xlink:href="#c"/><linearGradient id="h" x1="-63.299" y1="0.5" x2="-62.299" y2="0.5" gradientUnits="objectBoundingBox"><stop offset="0" stop-color="#5d64ab"/><stop offset="0.005" stop-color="#202556"/><stop offset="1" stop-color="#5f64ad"/></linearGradient><linearGradient id="i" x1="0.984" y1="0.962" x2="0.234" y2="0.108" xlink:href="#c"/><linearGradient id="j" x1="0.079" y1="2.028" x2="0.485" y2="0.069" gradientUnits="objectBoundingBox"><stop offset="0" stop-color="#c9c4c1"/><stop offset="1" stop-color="#fef6df"/></linearGradient><linearGradient id="k" x1="-0.238" y1="0.5" x2="0.762" y2="0.5" xlink:href="#j"/><linearGradient id="l" x1="0.5" y1="1.147" x2="0.5" y2="0.24" gradientUnits="objectBoundingBox"><stop offset="0" stop-color="#c6d21e"/><stop offset="1" stop-color="#eae9f5"/></linearGradient><linearGradient id="m" x1="0.001" y1="0.504" x2="1.001" y2="0.504" xlink:href="#d"/><linearGradient id="n" x1="0.002" y1="0.504" x2="1.003" y2="0.504" xlink:href="#d"/><linearGradient id="o" x1="0" y1="0.505" x2="1.001" y2="0.505" xlink:href="#d"/><linearGradient id="p" x1="-0.002" y1="0.504" x2="1" y2="0.504" xlink:href="#d"/><linearGradient id="q" x1="-0.002" y1="0.493" x2="1" y2="0.493" xlink:href="#d"/><linearGradient id="r" x1="-0.002" y1="0.496" x2="1" y2="0.496" xlink:href="#d"/><linearGradient id="s" x1="-0.004" y1="0.504" x2="1.006" y2="0.504" xlink:href="#d"/><linearGradient id="t" x1="-0.004" y1="0.493" x2="1.006" y2="0.493" xlink:href="#d"/><linearGradient id="u" x1="-0.004" y1="0.496" x2="1.006" y2="0.496" xlink:href="#d"/><linearGradient id="v" x1="-0.002" y1="0.498" x2="1" y2="0.498" xlink:href="#d"/><linearGradient id="w" x1="0.002" y1="0.498" x2="0.998" y2="0.498" xlink:href="#d"/></defs><path class="a" d="M394.98,201.489h-39.97A20.518,20.518,0,0,1,334.5,180.98v-39.97A20.518,20.518,0,0,1,355.009,120.5h40.005a20.518,20.518,0,0,1,20.509,20.509v40.005A20.563,20.563,0,0,1,394.98,201.489Z" transform="translate(-217.628 -78.398)"/><rect class="b" width="37.49" height="1.852" transform="translate(138.604 104.643)"/><rect class="b" width="26.868" height="1.852" transform="translate(143.915 110.478)"/><path class="c" d="M691.084,331.014H628.543A24.126,24.126,0,0,1,604.4,306.871V225.043A24.126,24.126,0,0,1,628.543,200.9h62.541a24.126,24.126,0,0,1,24.143,24.143v81.793A24.156,24.156,0,0,1,691.084,331.014Z" transform="translate(-393.227 -130.707)"/><g transform="translate(261.415 146.954)"><rect class="d" width="8.805" height="1.642"/></g><g transform="translate(228.048 161.874)"><rect class="b" width="51.151" height="3.145"/><rect class="b" width="41.368" height="3.145" transform="translate(0 15.129)"/><rect class="b" width="24.248" height="3.145" transform="translate(0 7.547)"/></g><g transform="translate(228.922 83.155)"><path class="d" d="M718.859,238v1.607h9.364v8.8h1.607V238ZM655.2,248.412h1.607v-8.8h9.364V238H655.2ZM728.258,293.8v8.8h-9.364v1.607h10.971V293.833h-1.607Zm-71.451,0H655.2v10.377h10.971v-1.607h-9.364Z" transform="translate(-655.2 -238)"/></g><g transform="translate(289.227 161.664)"><path class="d" d="M837.164,481.427a9.364,9.364,0,1,1,9.364-9.364A9.364,9.364,0,0,1,837.164,481.427Zm0-16.946a7.547,7.547,0,1,0,7.547,7.547A7.56,7.56,0,0,0,837.164,464.482Z" transform="translate(-827.8 -462.7)"/><g transform="translate(4.507 6.289)"><path class="d" d="M844.963,487.443l-4.263-4.263,1.293-1.293,2.97,2.97,4.158-4.158,1.293,1.293Z" transform="translate(-840.7 -480.7)"/></g></g><path class="e" d="M304.251,712.228c0,3.948-68.1,7.128-152.125,7.128S0,716.176,0,712.228,68.1,705.1,152.125,705.1C236.119,705.1,304.251,708.314,304.251,712.228Z" transform="translate(0 -458.743)"/><rect class="f" width="54.575" height="46.854" transform="translate(130.079 45.142)"/><g transform="translate(18.257 137.652)"><g transform="translate(31.147 21.461)"><path class="g" d="M141.819,529.017c4.542-3.179,9.853-25.471,10.167-38.748.175-6.813,2.166-9.643,3.948-12.124,1.677-2.376,3.145-4.437,2.306-9.189-1.642-9.049,2.655-12.962,2.69-13l-.489-.559c-.175.175-4.647,4.193-2.935,13.7.8,4.437-.524,6.289-2.166,8.63-1.747,2.446-3.913,5.52-4.088,12.543-.349,14.255-5.765,35.254-9.853,38.154Z" transform="translate(-141.4 -455.4)"/></g><g transform="translate(0 52.122)"><path class="h" d="M74.317,579.612q-.629-1.467-1.363-3.04c-2.586-5.485-4.891-6.394-8.7-7.861-.943-.349-1.992-.769-3.145-1.293-5.451-2.446-4.4-6.079-3.459-9.259.14-.454.245-.873.384-1.328.489-1.887-.454-2.83-1.852-4.228a15.141,15.141,0,0,1-3.319-4.472c-1.083-2.271-.524-3.494.14-4.123,1.4-1.328,4.577-1.083,7.582.559a11.2,11.2,0,0,1,2.516,2.166c1.922,2.026,4.3,4.507,10.377,4.542,3.459,0,5.346.489,6.324,1.607,1.118,1.258.908,3.11.594,5.7-.1.908-.21,1.922-.28,3a17.4,17.4,0,0,0,3.494,11.285c2.306,2.76,5.136,8.42,3.913,11.949a4.3,4.3,0,0,1-3.424,2.76,9.771,9.771,0,0,1-1.922.21C77.915,587.753,76.343,584.259,74.317,579.612Zm-14.15-34.38c-2.69-1.468-5.59-1.782-6.708-.7-.873.8-.454,2.236.035,3.249a15.537,15.537,0,0,0,3.179,4.263c1.467,1.5,2.62,2.655,2.026,4.961-.1.454-.245.908-.384,1.363-.943,3.179-1.817,6.184,3.04,8.35,1.153.524,2.2.908,3.11,1.293,3.843,1.5,6.394,2.516,9.119,8.246.524,1.083.943,2.1,1.4,3.075,2.341,5.346,3.773,8.56,8.91,7.512a3.517,3.517,0,0,0,2.865-2.271c1.083-3.075-1.5-8.49-3.773-11.216a18.009,18.009,0,0,1-3.669-11.809c.07-1.118.175-2.131.28-3.04.28-2.376.454-4.123-.419-5.1-.8-.908-2.586-1.328-5.765-1.328-6.359-.035-8.875-2.655-10.9-4.787a9.631,9.631,0,0,0-2.341-2.061Z" transform="translate(-52.254 -543.154)"/></g><g transform="translate(5.746 58.148)"><path class="i" d="M94.66,603.34l.734-.035c-.035-.7-.978-17.33-7.652-22.186C80.4,575.773,78.1,570.043,77.016,566.2c-1.293-4.542-7.9-5.765-8.176-5.8l-.14.734c.07,0,6.429,1.188,7.582,5.276,1.118,3.948,3.494,9.853,11.006,15.338C93.716,586.36,94.66,603.166,94.66,603.34Z" transform="translate(-68.7 -560.4)"/></g><g transform="translate(24.636)"><path class="j" d="M128.577,498.8c-1.572-.769-1.5-3.913-1.433-8.7.1-6.01.245-14.255-2.9-21.837-3.354-8.036-.349-10.412,2.516-12.683,3.214-2.551,6.289-4.961.419-15.827-2.69-5-3.529-8.35-2.69-10.622.839-2.236,3.214-3.11,5.73-4.018,4.332-1.572,9.259-3.389,8.63-12.578-.21-2.83.14-4.542,1.048-5.451.978-.978,2.446-.873,4.123-.734,2.551.175,5.416.384,7.9-2.865.245-.8,2.655-8.106,5.52-9.329a2.171,2.171,0,0,1,1.747,0h0c1.992.943,3.11,2.061,3.494,3.424.664,2.376-1.083,5.031-3.075,8.141-3.145,4.857-6.743,10.377-3,16.911,4.891,8.665,2.306,11.7-1.258,15.9a28.523,28.523,0,0,0-5.94,9.573c-1.258,3.564.873,6.988,2.935,10.272,2.585,4.123,5.276,8.42-.384,12.124-9.329,6.149-18.518,26.135-18.623,26.344l-.035.07-.07.07c-1.712,1.363-2.97,1.992-3.913,1.992A1.879,1.879,0,0,1,128.577,498.8Zm22.99-28.93c5.031-3.319,2.76-6.918.14-11.076-2.061-3.284-4.4-7.023-3-10.936a28.9,28.9,0,0,1,6.079-9.818c3.529-4.123,5.835-6.813,1.188-15.024-3.948-6.953-.07-12.893,3.04-17.679,1.922-2.935,3.564-5.485,2.97-7.512-.314-1.153-1.328-2.1-3.11-2.935h0a1.257,1.257,0,0,0-1.118,0c-2.655,1.153-5.1,8.875-5.1,8.944l-.035.07-.035.035c-2.76,3.634-6.01,3.424-8.6,3.214-1.572-.1-2.8-.21-3.529.524s-1.013,2.306-.839,4.857c.664,9.748-4.752,11.74-9.119,13.347-2.446.908-4.577,1.677-5.276,3.564-.769,2.026.07,5.206,2.655,9.993,6.149,11.425,2.725,14.15-.629,16.771-2.8,2.2-5.416,4.263-2.306,11.809,3.214,7.722,3.075,16.037,2.935,22.116-.07,4.158-.14,7.442,1.013,8,.664.349,1.957-.245,3.808-1.677C133.468,494.818,142.273,475.951,151.567,469.872Z" transform="translate(-122.764 -393.975)"/></g><path class="k" d="M87.123,443.84c4.752-1.642,3.773,7.512,5.765,14.29s22.291,2.935,13.766,19.88,10.761,5.66,5,20.439-.489,30.607-6.778,26.554c-6.254-4.018-3.529-22.641-10.028-24.842s-7.582-4.787-1.118-10.8-16.911-11.984-11.146-24.108C88.381,453.133,81.637,445.726,87.123,443.84Z" transform="translate(-71.384 -426.291)"/><g transform="translate(18.883 38.512)"><path class="l" d="M118.773,563.457c.594-2.516,5.7-24.807.943-27.5-4.193-2.376-4.088-11.6-3.424-20.3.594-7.722-9.329-11.32-9.748-11.46l-.245.7c.1.035,9.783,3.564,9.259,10.691-.664,8.944-.734,18.448,3.808,21.033,3.6,2.026.28,19.95-1.293,26.659Z" transform="translate(-106.3 -504.2)"/></g><path class="m" d="M139.785,651.2l-6.778,25.68H117.878L111.1,651.2Z" transform="translate(-90.54 -561.328)"/><path class="n" d="M139.785,651.2s-14.919,2.8-14.919,25.68h-6.988L111.1,651.2Z" transform="translate(-90.54 -561.328)"/></g><path class="o" d="M631.726,88.262H605.941A16.85,16.85,0,0,1,589.1,71.421V51.541A16.85,16.85,0,0,1,605.941,34.7h25.785a16.85,16.85,0,0,1,16.841,16.841v19.88A16.85,16.85,0,0,1,631.726,88.262Z" transform="translate(-383.273 -22.576)"/><g transform="translate(232.975 55.553)"><rect class="d" width="4.717" height="0.873"/></g><g transform="translate(215.54 21.767)"><path class="d" d="M651.071,62.335v.839H656.1V67.89h.839V62.3h-5.87ZM616.9,67.925h.839V63.208h5.031V62.37H616.9Zm39.2,24.353v4.717h-5.031v.839h5.87v-5.59H656.1Zm-38.363,0H616.9v5.59h5.87V97.03h-5.031V92.278Z" transform="translate(-616.9 -62.3)"/></g><g transform="translate(154.222 95.594)"><rect class="d" width="6.289" height="1.153"/></g><g transform="translate(130.603 50.487)"><path class="d" d="M419.431,144.535v1.153h6.708v6.324h1.153V144.57h-7.861ZM373.8,151.977h1.153v-6.324h6.708V144.5H373.8Zm52.374,32.563v6.324h-6.708v1.153h7.861v-7.442h-1.153Zm-51.221,0H373.8v7.442h7.861v-1.153h-6.708Z" transform="translate(-373.8 -144.5)"/></g><g transform="translate(229.586 54.674)"><g transform="translate(0 36.308)"><path class="p" d="M727.573,301.838H717.056c-.7-5.031-1.537-10.8-1.537-10.8s-.419,4.752-.943,10.8H672.508c-.384-5.416-.839-9.5-1.013-9.573-.245-.1-1.747,4.682-3,9.573H657.1c2.935-12.613,8.385-32.878,11.565-34.066,4.507-1.747,22.85-7.372,22.85-7.372H702s18.588,5.311,20.335,11.076A208.547,208.547,0,0,1,727.573,301.838Z" transform="translate(-657.1 -260.4)"/></g><g transform="translate(28.406 2.222)"><path class="q" d="M750.1,162.932s9.783,1.537,8.281,16.841-10.1,14.046-10.691,14.011c-.559,0-8.665.279-9.294-18.378C738.435,175.406,738.156,161.6,750.1,162.932Z" transform="translate(-738.4 -162.842)"/></g><g transform="translate(31.69 27.013)"><path class="q" d="M760.8,235.44s-.28,6.289.349,7.652c.594,1.363-8.071,5.73-13.347.873,0,0,1.293-6.848.908-9.259C748.359,232.3,760.8,235.44,760.8,235.44Z" transform="translate(-747.8 -233.797)"/></g><g transform="translate(47.982 14.308)"><path class="q" d="M795.014,197.946s1.083-1.153,1.467,0-1.677,6.324-1.537,6.569c0,0-.21.454-.454.21C794.211,204.479,795.014,197.946,795.014,197.946Z" transform="translate(-794.431 -197.433)"/></g><g transform="translate(27.019 14.133)"><path class="q" d="M735.958,197.446s-1.048-1.153-1.467,0,1.537,6.359,1.4,6.6c0,0,.175.454.454.21C736.586,203.979,735.958,197.446,735.958,197.446Z" transform="translate(-734.431 -196.933)"/></g><g transform="translate(27.258)"><path class="r" d="M756.387,173.644l-1.4,1.887a40.289,40.289,0,0,0-.175-4.752c-.21-.629-.559-2.62-.769-3.075-.175-.454-8.385-2.76-15.653.664,0,0,.314,2.935-.384,3.214s-.349,4.787-.349,4.787l-1.153-1.293s-1.747-11.775-1.328-13,1.817-8.6,16.7-4.228c0,0,4.647-.978,5.555,2.2C758.414,163.3,756.387,173.644,756.387,173.644Z" transform="translate(-735.114 -156.482)"/></g><g transform="translate(31.65 36.262)"><path class="q" d="M761.038,260.314s2.2.454-7.023,9.329c0,0-6.534-7.232-6.324-8.455S761.038,260.314,761.038,260.314Z" transform="translate(-747.686 -260.268)"/></g><g transform="translate(38.014 34.98)"><path class="s" d="M765.9,267.256l2.516,4.3,7.442-12.683-3.214-2.271Z" transform="translate(-765.9 -256.6)"/></g><g transform="translate(28.406 35.889)"><path class="s" d="M748.008,268.948l-6.114-9.748-3.494,2.236,6.219,11.809Z" transform="translate(-738.4 -259.2)"/></g><g transform="translate(35.665 45.637)"><path class="s" d="M759.6,314.038c.07,1.432.1,3.179.1,5.171h-.349c0-1.957-.035-3.738-.1-5.136-.559-10.8,2.061-23.9,2.061-26.973l.349.07C761.665,290.21,759.045,303.277,759.6,314.038Z" transform="translate(-759.176 -287.1)"/></g><path class="t" d="M753,245.649a6.538,6.538,0,0,0,5.59,1.817,9.574,9.574,0,0,0,4.752-2.166,6.063,6.063,0,0,1-5.1,3.529A5.38,5.38,0,0,1,753,245.649Z" transform="translate(-719.493 -214.268)"/></g><g transform="translate(132.105 34.328)"><g transform="translate(16.261 10.946)"><path class="u" d="M426.129,135.247h0c-.245-.07-.594-1.118-.664-1.328a.8.8,0,0,0-.1-.314c-.279-.839-.908-2.83-.664-3.6a.552.552,0,0,1,.349-.419c.349-.07.769.384.769.384h0a38.036,38.036,0,0,1,.349,5.206C426.164,135.247,426.164,135.247,426.129,135.247Zm-.978-5.555h-.07a.461.461,0,0,0-.314.349c-.245.734.419,2.76.664,3.529a1.627,1.627,0,0,0,.1.314c.175.489.454,1.223.594,1.258h0a50.426,50.426,0,0,0-.349-5.1C425.71,130.006,425.431,129.691,425.151,129.691Z" transform="translate(-424.642 -129.579)"/></g><g transform="translate(13.661)"><path class="v" d="M428.555,98.267a7.167,7.167,0,0,1,7.3,4.647c1.922,5.206,3.773,6.883,3.983,9.608.908,11.041,6.079,8.525,4.612,14.919-1.433,6.359-2.446,7.337-2.446,7.337l-12.334-2.411L417.2,132.4s4.892-2.446,3.808-7.617c-1.083-5.206-3.808-13.7-2.271-19.5C420.31,99.42,425.341,98.687,428.555,98.267Z" transform="translate(-417.2 -98.25)"/></g><g transform="translate(31.473 10.981)"><path class="u" d="M468.292,135.311c-.035,0-.035,0-.07-.035a38.378,38.378,0,0,1,.349-5.206h0c0-.035.419-.454.769-.384.175.035.279.175.349.419.245.769-.384,2.725-.664,3.6a1.623,1.623,0,0,1-.1.314c-.035.175-.384,1.258-.629,1.293Zm.349-5.206a35.532,35.532,0,0,0-.349,5.1h0c.14-.035.419-.769.594-1.258a.8.8,0,0,1,.1-.314c.245-.769.908-2.8.664-3.529a.461.461,0,0,0-.314-.349C469.06,129.72,468.711,130.07,468.641,130.1Z" transform="translate(-468.18 -129.678)"/></g><g transform="translate(0 27.865)"><path class="w" d="M428.413,199.769h-7.687c-1.607-2.9-2.9-5.171-2.9-5.171a22.728,22.728,0,0,0-1.852,5.171H390.119a23.774,23.774,0,0,1-.349-5.416s-1.4,2.481-2.97,5.416h-8.7c2.306-4.332,6.638-12.159,7.617-13.207,1.223-1.293,8.385-6.219,13.487-7.826s8-.07,8-.07a60.66,60.66,0,0,1,10.1,2.865C419.223,182.3,424.464,192.012,428.413,199.769Z" transform="translate(-378.1 -178.002)"/></g><g transform="translate(17.225 2.996)"><path class="x" d="M435.889,106.886s7.128,1.013,6.079,11.53-7.337,9.678-7.757,9.678-6.324.21-6.813-12.613C427.4,115.481,427.19,105.978,435.889,106.886Z" transform="translate(-427.399 -106.825)"/></g><g transform="translate(20.787 21.902)"><path class="x" d="M445.7,161.413s-.454,5.485.629,7.093c1.048,1.642-.908,3.878-4.926,3.11s-3.808-3.04-3.808-3.04a17.077,17.077,0,0,0,.8-6.079C438.051,159.806,445.7,161.413,445.7,161.413Z" transform="translate(-437.595 -160.937)"/></g><g transform="translate(16.5 1.354)"><path class="v" d="M433.737,107.637s3.319,3.494,4.891,5.276c1.537,1.782,1.712,5.206,1.712,5.206s2.62-3.179,1.5-6.883c-1.083-3.7-3.669-10.9-10.2-8.7s-6.778,11.949-6.01,16.806C425.666,119.307,428.6,108.615,433.737,107.637Z" transform="translate(-425.325 -102.126)"/></g><g transform="translate(19.796 28.024)"><path class="x" d="M446.373,179.451s-4.926,12.508-7.931,14.674c0,0-3.948-12.753-3.669-14.64C434.739,179.521,440.678,177.18,446.373,179.451Z" transform="translate(-434.759 -178.459)"/></g><g transform="translate(14.056 26.012)"><path class="v" d="M425.237,172.7s-8.8,7.826-6.534,12.718c1.957,4.158,8.875,1.607,7.722-2.76A50.367,50.367,0,0,1,425.237,172.7Z" transform="translate(-418.329 -172.7)"/></g><g transform="translate(22.117 23.077)"><path class="y" d="M441.4,165a6.183,6.183,0,0,0,5.975-.7,3.745,3.745,0,0,1-3,1.922A2.845,2.845,0,0,1,441.4,165Z" transform="translate(-441.4 -164.3)"/></g></g><g transform="translate(220.781 1.744)"><g transform="translate(0 27.43)"><path class="z" d="M643.5,83.5s-2.935,11.006-3.529,13.487a20.927,20.927,0,0,1-1.5,3.494.034.034,0,0,1-.035.035,2.457,2.457,0,0,0-.279.908c-.1.908.245,1.642-.384,2.725l-.1.454H631.9c.664-1.992,1.537-4.542,2.2-6.6.559-1.747,1.013-3.11,1.153-3.529.349-1.188,1.677-5.066,2.8-7.617.384-.908,1.887-1.782,3.214-2.411A19.132,19.132,0,0,1,643.5,83.5Z" transform="translate(-631.9 -83.5)"/></g><g transform="translate(7.584)"><path class="aa" d="M653.744,16.7s-1.852-11.914,8.036-11.7,9.748,6.114,9.573,11.949-3.948,5.416.314,13.556-3.7,8.141-3.7,8.141l-6.184-8.455Z" transform="translate(-653.606 -4.992)"/></g><g transform="translate(7.697 1.015)"><path class="u" d="M660.908,8.038s-6.673,1.048-6.953,10.552,1.817,11.53,7.652,9.538,7.687-11.914,7.826-13.452S669.922,6.885,660.908,8.038Z" transform="translate(-653.93 -7.897)"/></g><g transform="translate(1.5 24.251)"><path class="ab" d="M661.108,84.358c.035,3.284-3.738,11.076-4.332,13.521-.07.28-.14.524-.21.769H638.328c-.1-1.118-.175-2.1-.245-2.62-.14-1.782-1.957-5.625-1.887-7.442s.943-3.389,2.2-5.346c.384-.594.8-1.223,1.223-1.817a34.036,34.036,0,0,1,3.319-4.332,9.51,9.51,0,0,1,1.328-1.048h0a5.616,5.616,0,0,1,1.363-.734l5.73-.908s3.6,1.293,5.66,1.782C657.02,76.182,661.073,76.776,661.108,84.358Z" transform="translate(-636.194 -74.4)"/></g><g transform="translate(3.179 25.893)"><path class="ab" d="M647.394,79.1l-3.319,5.241L641,89.2c0-.035.21-.769.559-2.9q.1-.629.21-1.363c.035-.14.07-.314.1-.454h0c1.293-3,5.381-5.311,5.52-5.381Z" transform="translate(-641 -79.1)"/></g><g transform="translate(10.561 16.845)"><path class="u" d="M670.713,53.344c-.594,1.083-1.188,7.9-1.188,7.9s-8.176,3.075-7.337,1.328a6.513,6.513,0,0,0,.489-2.725,9.319,9.319,0,0,0-.1-1.642,1.584,1.584,0,0,1-.035-.28S671.307,52.26,670.713,53.344Z" transform="translate(-662.127 -53.206)"/></g><g transform="translate(7.722 0.844)"><path class="aa" d="M658.228,14.533s3.424,5.59,6.569,7.791c3.11,2.2,1.537,3.948,1.537,3.948s8.141-17.155.384-18.343S654.21,6.636,654,18.271C654,18.271,657.529,14.463,658.228,14.533Z" transform="translate(-654 -7.408)"/></g><g transform="translate(11.006 21.141)"><path class="ac" d="M668.082,65.5c-1.258,1.852-4.577,2.341-4.577,2.341h0a9.31,9.31,0,0,0-.1-1.642A9.334,9.334,0,0,0,668.082,65.5Z" transform="translate(-663.4 -65.5)"/></g><path class="ad" d="M642.914,84.446h0A7.185,7.185,0,0,0,642.6,86.3l1.188-1.817s2.166-3.075,2.9-3.878a11.882,11.882,0,0,1,1.747-1.5S644.207,81.126,642.914,84.446Z" transform="translate(-638.862 -53.207)"/><path class="ab" d="M686.62,89.395s5.241-2.061,6.813-2.166c0,0-1.048-8.42-6.219-7.547C682.043,80.59,686.62,89.395,686.62,89.395Z" transform="translate(-666.285 -53.544)"/><path class="u" d="M657.956,75.27s-3.843,5.94-2.551,6.429c1.293.524,8.35-.7,11.355-6.324C666.8,75.41,662.288,73.1,657.956,75.27Z" transform="translate(-647.02 -50.111)"/><path class="z" d="M683.793,84.614a63.524,63.524,0,0,1-2.69,13.1c-.175.594-.315,1.153-.454,1.747H669.957c-.035-1.607-.035-3,.035-4.193C670.516,82.378,674.6,75.6,674.6,75.6s1.293.454,5.066,1.5c2.586.734,3.529,4.018,3.913,5.975v.035A11.85,11.85,0,0,1,683.793,84.614Z" transform="translate(-656.646 -50.93)"/><path class="z" d="M645.4,77a34.188,34.188,0,0,0-1.572,3.179,35.006,35.006,0,0,0-2.97,12.578,64.208,64.208,0,0,1-.873,7.582h-2.131a32.826,32.826,0,0,0-1.188-6.6c-.279-1.048-.559-1.817-.7-2.306-.664-2.306,1.5-5.381,2.236-6.5C638.938,83.848,640.684,78.782,645.4,77Z" transform="translate(-634.465 -51.841)"/><path class="z" d="M696.347,101.793h-5.73a7.9,7.9,0,0,0-.349-1.747c-1.048-3.7-4.123-10.936-4.123-10.936s-4.612-7.547-.245-9.469,6.254,3.459,6.848,5.73v.035C692.888,86,695.508,95.924,696.347,101.793Z" transform="translate(-665.81 -53.295)"/></g><g transform="translate(92.294 98.319)"><g transform="translate(64.897 55.853)"><path class="u" d="M450.424,444.94s1.992-.035,2.725-.8a10.063,10.063,0,0,1,2.376-1.677c.524-.279,2.026-1.712,2.236-1.013.175.7-2.376,2.516-2.865,3s2.131.7,2.516,1.188-.943,5.451-2.69,5.066-3.179-2.131-3.529-2.131a11.009,11.009,0,0,1-1.293-.21Z" transform="translate(-449.9 -441.256)"/></g><g transform="translate(69.789 60.026)"><path class="u" d="M466.136,453.2s5.206,1.607,5.451,2.061c.21.454.07.769-.419.664-.489-.14-5.1-1.363-5.1-1.363s5.7,3.11,5.975,3.424c.14.175-.1.839-.384.8s-6.149-2.725-6.149-2.725,5.311,2.935,5.451,3.284c.1.314-.245.873-.664.664-.419-.175-5.555-2.551-5.555-2.551s3.7,2.411,3.634,2.83c-.035.245-.245.8-1.153.14-.943-.664-3.319-1.922-3.319-1.922Z" transform="translate(-463.9 -453.2)"/></g><g transform="translate(48.705 147.14)"><path class="ae" d="M409.3,702.973s1.677,2.516,4.018,3.04,4.647,1.4,4.682,2.9c.035,1.468-6.778,2.376-9.469.873-4.018-2.236-4.437-1.572-4.857-2.69-.454-1.118.524-4.088.489-4.437C404.13,702.24,409.3,702.973,409.3,702.973Z" transform="translate(-403.555 -702.53)"/></g><g transform="translate(49.275 145.627)"><path class="af" d="M410.084,698.934a7.58,7.58,0,0,1,.245,1.223c-.07,0-5.311.664-5.136-.314.14-.8.314-1.642.314-1.642Z" transform="translate(-405.188 -698.2)"/></g><g transform="translate(15.758 146.812)"><path class="ae" d="M315,702.224a7.252,7.252,0,0,0,3.249,3.214c2.166.873,3.948,1.887,3.878,3.319-.035,1.432-5.346,2.9-9.189.14-2.446-1.747-3.214-1.747-3.6-2.865s.664-3.983.664-4.332C309.971,701.281,315,702.224,315,702.224Z" transform="translate(-309.258 -701.593)"/></g><g transform="translate(16.47 145.243)"><path class="af" d="M316.363,698.043a7.806,7.806,0,0,1-.07,1.258c-.035.035-5.1.454-5-.524a7.94,7.94,0,0,1,.489-1.677Z" transform="translate(-311.295 -697.1)"/></g><g transform="translate(14.516 67.366)"><path class="ag" d="M331.347,479.795s6.673,25.541,9.189,31.41c2.341,5.451,3.11,13.1,3.459,16.946.419,4.822,2.83,23.654,3.11,25.051s-7.826.769-7.826.769-5.59-32.529-7.931-37.28c-1.537-3.179-10.552-25.89-11.6-24.562-1.013,1.293-2.306,24.073-3.075,27.847s-3.11,33.612-3.11,33.612-5.241.769-6.638-.419c0,0-.629-25.471-.14-32.563.175-2.69-3.179-32.354,1.118-44.3C310.174,470.047,331.347,479.795,331.347,479.795Z" transform="translate(-305.703 -474.207)"/></g><g transform="translate(2.95 24.772)"><path class="ah" d="M272.67,382.208a16.2,16.2,0,0,0,1.432,3.145c1.293-2.585,2.306-4.682,2.62-5.451,1.083-2.551,6.673-8.42,6.673-8.42h0v.14c.314,1.118,2.166,8.211,2.236,11.7.07,3.808,1.083,10.831,1.083,10.831h0l1.153.175,2.586.349.314.035.734.1,6.848.978,2.411.349.314.035,1.4.21,3.843.524.978.14h0l.734.1,1.013.14h0c.035-.035.978-1.363.839-4.263-.1-1.887-.314-5.416-.21-8.665v-.21h0a23.1,23.1,0,0,1,.559-4.787,25.042,25.042,0,0,0,.489-2.551v-.1c0-.14.035-.314.035-.454a24.585,24.585,0,0,0,.035-4.088h0c.07.14.559,1.992,1.223,4.228,1.118,3.808,2.655,8.875,3.319,9.119.943.349,16.526,4.961,19.88,5.416.384.07.629.07.629,0,0-.035.035-.1.035-.14.419-1.363.978-3.634,1.048-4.018v-.035l-.594-.175-16.911-5.066L311.7,359.183c-.175-.14-2.061-1.048-3.459-1.712s-3.11-1.677-4.682-2.516c-.8-.419-1.537-.839-2.166-1.118l-.1-.035h0c-1.048-.489-1.782-.8-1.782-.8h0a3.8,3.8,0,0,0-.454-.035c-1.5-.14-6.114-.559-7.652-.664h-.454a19.233,19.233,0,0,0-2.411.8h0c-.035.035-.1.035-.14.07-.07.035-.1.035-.175.07a1.242,1.242,0,0,0-.314.14c-.21.07-.454.175-.7.28-.07.035-.175.07-.245.1a44.425,44.425,0,0,0-6.044,2.725c-.454.314-1.852,2.97-3.494,6.219-2.1,6.708-4.752,16.98-4.822,19.5C272.67,382.1,272.67,382.173,272.67,382.208Z" transform="translate(-272.6 -352.3)"/></g><g transform="translate(16.742 66.56)"><path class="ai" d="M334.828,475.079s.524.629.664,3.214c0,0-21.173-2.481-23.409-3.459,0,0-.1-2.865.384-2.935C312.956,471.9,334.828,475.079,334.828,475.079Z" transform="translate(-312.073 -471.9)"/></g><g transform="translate(21.433 16.355)"><path class="u" d="M325.5,335.788c.07,3.319,6.5,5.136,6.5,5.136s2.69-3.389,2.061-3.7c-.245-.14-.349-.629-.384-1.188a10.261,10.261,0,0,1,.035-1.5,3.025,3.025,0,0,0,.035-.384s-.908-.978-2.1-2.131c-2.061-2.027-4.857-4.612-4.857-3.564a.519.519,0,0,0,.035.21C327.282,330.966,325.5,335.788,325.5,335.788Z" transform="translate(-325.5 -328.21)"/></g><g transform="translate(20.49 66.979)"><path class="ae" d="M324.267,473.24s-.454,2.9-.489,3.669l-.978-.21s.28-3.075.419-3.6Z" transform="translate(-322.8 -473.1)"/></g><g transform="translate(36.736 69.215)"><path class="ae" d="M370.278,479.675s.384,2.655.384,3.634l-1.048-.14s-.21-3.319-.314-3.669Z" transform="translate(-369.3 -479.5)"/></g><g transform="translate(23.914 19.077)"><path class="ac" d="M332.6,336h0a8.431,8.431,0,0,0,.769,1.013A12.988,12.988,0,0,0,338.3,341.1a10.256,10.256,0,0,1,.035-1.5,3.849,3.849,0,0,0,.629-.07,17.2,17.2,0,0,0-1.4-2.061l-1.293-.384Z" transform="translate(-332.6 -336)"/></g><g transform="translate(20.469 5.457)"><path class="u" d="M324.927,308.191c.559,1.223,1.083,2.1,1.223,2.446h0a4.185,4.185,0,0,0,.769,1.013c1.048,1.153,3.04,2.655,4.961,2.585a3.853,3.853,0,0,0,.629-.07,2.982,2.982,0,0,0,2.2-1.537c4.018-7.861,1.118-14.29,1.118-14.29s-10.971-3.11-12.683.21C321.958,300.854,323.635,305.361,324.927,308.191Z" transform="translate(-322.74 -297.016)"/></g><g transform="translate(18.843)"><path class="aj" d="M332.837,288.178s1.013-.07,1.258-1.992-.245-2.446-.245-2.446a46.259,46.259,0,0,0-6.149-2.131c-1.642-.245-5.625-.489-6.569.594,0,0-2.271-.524-2.9,3.249-.978,6.01,3.354,11.844,3.354,11.844s-.035-3.913.839-4.437,1.607.7,1.607.7l1.782.314s-2.69-5.8.524-6.01S330.985,288.527,332.837,288.178Z" transform="translate(-318.088 -281.399)"/></g><g transform="translate(21.632 8.945)"><path class="u" d="M329.156,308.643c-.175-1.712-3.284-2.376-3.075-.559s1.747,3.564,2.446,3.494C329.261,311.508,329.3,309.971,329.156,308.643Z" transform="translate(-326.071 -307.001)"/></g><g transform="translate(3.084 25.401)"><path class="ak" d="M274.352,386.489c1.363,2.585,3.494,6.429,5.625,10.132-.28.524-.559,1.048-.8,1.537a38.086,38.086,0,0,0-1.607,3.564c-.489,1.363-1.153,4.822.14,5.451l6.778,3.738a2.851,2.851,0,0,1,.14-.384c.21-.594.7-1.922,1.4-3.6a2.434,2.434,0,0,0,.175-.454c.14-.314.314-.769.559-1.293l.314-.734c.14-.28.245-.594.384-.873.175-.419.384-.874.524-1.258.454-1.083.839-1.922.839-1.922.035-.035.035-.1.07-.14.21-.489.454-.943.664-1.433.349-.734.734-1.467,1.083-2.2l.1-.21c.07-.14.14-.245.21-.384a2,2,0,0,1,.14-.245l.035-.035c0-.035.035-.07.035-.1,1.957-3.564,4.158-6.569,4.857-10.936l.21-1.258c.1-.7.21-1.4.28-2.061.035-.245.07-.489.1-.769.349-2.935.559-5.52.734-7.337.524-5.66-2.935-11.775-5.59-15.548-1.433-2.026-2.62-3.389-2.83-3.634h0c-.035.035-.1.035-.14.07-.07.035-.1.035-.175.07a1.241,1.241,0,0,0-.314.14c-.21.07-.454.175-.7.279-.07.035-.175.07-.245.1-2.586,1.013-8,2.516-8.665,3-.384.279-1.258,2.865-2.306,6.114a95.823,95.823,0,0,0-3.389,19.356v.1A10.638,10.638,0,0,0,274.352,386.489Zm10.307-1.258a11.684,11.684,0,0,1-1.048,4.228c0,.035-.035.07-.035.1-.419-.943-.839-1.817-1.223-2.62h0a21.128,21.128,0,0,1-1.747-4.717c-.245-4.472,3.04-9.608,3.04-9.608h0v.14C284.379,375.413,284.659,385.231,284.659,385.231Z" transform="translate(-272.983 -354.1)"/></g><path class="al" d="M291.774,461.674l-19.286,8.6a2.176,2.176,0,0,1-2.865-1.083l-5.276-11.879a2.176,2.176,0,0,1,1.083-2.865l19.321-8.6a2.176,2.176,0,0,1,2.865,1.083l5.276,11.879A2.162,2.162,0,0,1,291.774,461.674Z" transform="translate(-264.156 -388.266)"/><g transform="translate(31.81 26.205)"><path class="ak" d="M355.2,356.47a87.66,87.66,0,0,1,2.061,10.552h0c.035.245.07.524.1.769v.1a2.694,2.694,0,0,1,.07.524v.07c.035.1.035.245.07.349.035.314.1.594.14.908.524,3.669,1.258,9.888,1.957,16.177h0c.559,4.961,1.817,10.062,2.236,13.836h0a27.246,27.246,0,0,0,.524,2.865c.035.14.07.245.1.384,1.118,4.787,3.354,11.565,3.354,11.565l.629-.594,1.887-1.747a1.492,1.492,0,0,0,.419-1.572c-1.048-3.389-4.647-15.443-5.276-23.9h0c.314-2.97,1.153-6.953,1.013-7.547,0,.035,0,.035.035.07.384,1.048.8,2.2,1.223,3.284h0c1.118,2.97,2.271,5.73,2.76,5.9,1.083.384,20.335,6.079,20.474,5.276,0-.07.035-.175.035-.245a.822.822,0,0,1,.07-.28c.245-1.083.664-2.655.978-3.7a1.48,1.48,0,0,1,.14-.419c.14-.419.21-.7.21-.7l-16.282-5.346-8.211-21.488c-.175-.14-2.271-1.258-3.634-1.922-1.432-.7-3.284-1.537-4.891-2.271-.769-.349-1.5-.7-2.131-.978Z" transform="translate(-355.2 -356.4)"/></g><g transform="translate(17.66 25.471)"><path class="am" d="M317.81,362.546l3.145,1.782-1.328,1.363,3.564,19.217c.734-4.507,1.048-8.8,1.293-11.425.8-8.735-7.9-18.588-8.455-19.182-.419.175-.873.349-1.328.524Z" transform="translate(-314.7 -354.3)"/></g><g transform="translate(31.74 26.205)"><path class="am" d="M355,356.4a105.858,105.858,0,0,1,2.551,13.347c.524,3.669,1.258,9.888,1.957,16.177l.734-17.994-1.5-1.607,1.328-1.642-2.83-7.232c-.769-.349-1.5-.7-2.131-.978Z" transform="translate(-355 -356.4)"/></g><g transform="translate(18.813 23.934)"><path class="an" d="M318,351.507l2.62-1.607s.07,1.432,6.5,5.136l-1.817,5.136Z" transform="translate(-318 -349.9)"/></g><g transform="translate(27.932 24.667)"><path class="an" d="M345.812,352a12.259,12.259,0,0,1-1.712,4.437l3.564,4.647.245-7.547Z" transform="translate(-344.1 -352)"/></g><g transform="translate(27.391 29.07)"><path class="w" d="M343.058,364.6s-.7,2.76-.454,3.529a3.353,3.353,0,0,0,2.62-.14A11.7,11.7,0,0,0,343.058,364.6Z" transform="translate(-342.551 -364.6)"/></g><g transform="translate(31.181 60.864)"><path class="ao" d="M353.714,463.636a50.112,50.112,0,0,0,0-8.036l-.314.035c0,.07.384,6.044,0,7.966Z" transform="translate(-353.4 -455.6)"/></g><g transform="translate(28.7 68.027)"><path class="ap" d="M346.37,476.1s3.11.384,4.158.629l-.14,3.494L346.3,479.8Z" transform="translate(-346.3 -476.1)"/></g><g transform="translate(27.757 31.795)"><path class="w" d="M345.312,372.819a49.237,49.237,0,0,1,2.9,18.588c-.594,10.2-1.537,13.871-1.537,13.871l-2.131,2.69-.943-3.319s2.865-13,1.013-25.61c-.349-2.306-.839-6.638-.839-6.638Z" transform="translate(-343.6 -372.4)"/></g><g transform="translate(15.632 73.675)"><path class="u" d="M312.287,492.278s.734,1.5,1.5,1.747a6.408,6.408,0,0,1,1.817,1.467l-5.241,2.76a14.437,14.437,0,0,1-1.467-4.472C308.828,492.034,312.287,492.278,312.287,492.278Z" transform="translate(-308.897 -492.267)"/></g><g transform="translate(15.319 73.827)"><path class="ah" d="M312.193,492.7l.349.7s-3.319,2.446-4.228,2.585l-.314-.943Z" transform="translate(-308 -492.7)"/></g><g transform="translate(5.815 57.021)"><path class="ak" d="M294.846,461.441a25.881,25.881,0,0,1-4.612,3L280.8,447.884l6.01-3.284C286.844,444.6,294.671,460.183,294.846,461.441Z" transform="translate(-280.8 -444.6)"/></g><g transform="translate(40.23 38.713)"><path class="ag" d="M380.1,398.07c.1,2.341.1,4.437.1,4.437h0v.07c.384,1.048.8,2.2,1.223,3.284a32.075,32.075,0,0,0,.1-3.6c-.175-6.6-2.236-10.063-2.236-10.063A23.676,23.676,0,0,1,380.1,398.07Z" transform="translate(-379.3 -392.2)"/></g></g><g transform="translate(168.023 98.761)"><g transform="translate(47.235 17.154)"><path class="u" d="M616.13,336.982a7.789,7.789,0,0,1,.035-1.782c.245-.978-.1-2.551,1.118-3.319s4.787,2.446,5.066,3.354-1.048,2.446-3.808,3.738C615.78,340.231,616.13,336.982,616.13,336.982Z" transform="translate(-616.092 -331.763)"/></g><g transform="translate(48.076 10.835)"><path class="u" d="M618.5,320.427a44.283,44.283,0,0,1,2.76-3.634c1.4-1.607,3.319-3.424,3.739-3.075.629.524-1.153,1.817-2.411,3.529-1.153,1.572-.664,1.433-.664,1.433s-.14.035,1.467-1.433c1.712-1.572,3.634-3.145,3.983-2.865.419.349.454.419-.07,1.083.384-.314.524-.245.7-.1.769.769-1.4,3.459-2.271,4.542.664-.8,1.258-1.328,1.4-.559.175.908-3.04,4.542-4.088,5.975C621.889,326.821,618.5,320.427,618.5,320.427Z" transform="translate(-618.5 -313.675)"/></g><g transform="translate(0.003 146.26)"><path class="aq" d="M487.579,701.7s3.354,1.992,4.891,2.725,7.442.943,8.036,1.5.384,2.341-.594,2.516-8.176.839-10.587.28-6.883.384-7.9.035c-.978-.349-.349-5.7.035-6.918C481.814,700.657,487.579,701.7,487.579,701.7Z" transform="translate(-480.908 -701.278)"/></g><g transform="translate(0.804 144.521)"><path class="ar" d="M489.349,696.3l-.28,2.2s-4.507.839-5.87.14l.349-2.271Z" transform="translate(-483.2 -696.3)"/></g><g transform="translate(0 59.989)"><path class="as" d="M505.917,463.948c-.035,1.5-.314,4.822-.664,8.281l-.21,2.306c-.454,4.647-.908,8.979-.908,8.979-.559,3.7-1.747,10.132-3.04,15.024h0c-.384,1.4-.769,2.69-1.153,3.7a9.718,9.718,0,0,1-1.118,2.271c-2.8,3.564-9.189,35.184-9.189,35.184l-8.735-.07s1.922-21.383,3.843-26.833c2.166-6.044,5.9-14.22,4.961-20.055-.594-3.669-1.328-15.338-1.328-15.338s-.734-13.1,2.69-22.711C491.906,452.278,505.917,463.948,505.917,463.948Z" transform="translate(-480.9 -454.361)"/></g><g transform="translate(24.449 147.058)"><path class="aq" d="M557.627,704.03s3.354,2.026,4.857,2.8,7.442,1.048,8,1.607c.594.559.349,2.341-.629,2.516s-8.211.734-10.587.14c-2.411-.594-6.918.314-7.9-.035s-.279-5.7.1-6.918C551.9,702.912,557.627,704.03,557.627,704.03Z" transform="translate(-550.875 -703.563)"/></g><g transform="translate(25.331 145.324)"><path class="ar" d="M559.584,698.6l-.315,2.2s-4.507.8-5.87.07l.349-2.271Z" transform="translate(-553.4 -698.6)"/></g><g transform="translate(12.255 61.009)"><path class="as" d="M524.789,510.255c-.245-6.988-.839-11.635-2.655-15.688-1.5-3.389-2.8-14.046-2.8-14.046s-4.088-12.473-3.249-22.641c.21-2.551,16.037,3.843,16.037,3.843a94.687,94.687,0,0,1,1.782,9.608c2.131,19.741,1.328,32.6,1.328,32.6-1.223,4.367,1.852,38.643,1.852,38.643h-8.875s-2.341-12.194-2.586-19.776C525.627,522.8,524.719,511.478,524.789,510.255Z" transform="translate(-515.976 -457.28)"/></g><g transform="translate(7.372 21.814)"><path class="at" d="M515.487,346.847s4.158,6.813,5.346,10.587c1.223,3.808.245,14.814.454,17.05.664,6.883,1.642,14.465,1.642,14.465l-13.906,8.875s-2.481-5.835-4.682-13.1A62.211,62.211,0,0,1,502,366.553c.07-13.7,7.477-21.453,7.477-21.453Z" transform="translate(-502 -345.1)"/></g><g transform="translate(12.146 2.641)"><path class="u" d="M529.513,292.906s2.865,3.04,2.061,3.843c-.664.664,1.957,3.7,2.341,4.228s-1.153,1.363-1.433,1.817-.1,5.241-1.432,5.73-8-.035-10.1-1.328c-2.131-1.293-5.52-8.735-5.276-12.334C515.886,291.263,524.481,287.56,529.513,292.906Z" transform="translate(-515.664 -290.223)"/></g><g transform="translate(15.688 7.84)"><path class="u" d="M533.417,317.157s-.035.419-.1,1.048a6.874,6.874,0,0,0-.07.908,3.852,3.852,0,0,1-.07.629v.175a.68.68,0,0,1-.035.28c-.035.454-.07.943-.1,1.4a13.638,13.638,0,0,0,.07,3.04c.349,1.782-7.3-5.7-7.3-5.7a85.774,85.774,0,0,0,.349-12.334C525.8,300.037,533.417,317.157,533.417,317.157Z" transform="translate(-525.8 -305.105)"/></g><g transform="translate(10.919)"><path class="au" d="M527.821,288.652s1.363-3.179-2.8-5.381c-4.892-2.585-10.1,3.913-10.8,4.3s-3.808,3.913-.769,8.6c3.878,5.9,3.669,5.7,3.669,5.7s.384-4.332.349-5.171c-.035-1.537,3.983-1.712,3.983-1.712s-1.642-2.2.175-3.179C523.489,290.783,525.62,288.442,527.821,288.652Z" transform="translate(-512.152 -282.665)"/></g><g transform="translate(15.027 10.436)"><path class="u" d="M526.98,313.814c-.279-.419-1.363-2.236-2.76-.629s2.341,4.577,2.62,4.542C527.189,317.693,529.46,317.273,526.98,313.814Z" transform="translate(-523.908 -312.533)"/></g><g transform="translate(7.896 64.859)"><path class="av" d="M524.673,472.038s-.7-3.249-.839-3.738L503.5,471.689l.21,2.62S518.384,473.436,524.673,472.038Z" transform="translate(-503.5 -468.3)"/></g><g transform="translate(4.314 54.238)"><path class="w" d="M495.048,437.9a61.675,61.675,0,0,1-1.782,29.244c-.594,1.922,13.556-.314,13.556-.314Z" transform="translate(-493.248 -437.9)"/></g><g transform="translate(5.258 21.884)"><path class="w" d="M514.764,405.605s-10.063,2.2-12.858,1.223a201.26,201.26,0,0,1-5.555-30.083c-.1-1.188-.21-2.341-.279-3.494h0c-.8-12.334,2.341-24.842,9.5-27.951.21.14,10.272,9.014,10.1,17.155,0,.559-.035,1.118-.035,1.642,0,1.013,0,1.992.035,3h0c.07,3.11.245,6.184.524,9.189l.1.943c.035.489.1,1.013.14,1.5.07.664.14,1.328.21,1.957A67.217,67.217,0,0,1,514.764,405.605Z" transform="translate(-495.949 -345.3)"/></g><g transform="translate(23.654 29.326)"><path class="aw" d="M548.6,366.775a112.653,112.653,0,0,1,2.62,16.911c.594,7.9,1.4,13.452,1.4,13.452l1.223,3.913.489-3.773s-.454-10.167-1.048-14.325-.839-9.469-4.193-16.352Z" transform="translate(-548.6 -366.6)"/></g><g transform="translate(23.13 27.125)"><path class="aw" d="M547.414,362.676a1.453,1.453,0,0,0,.559.28c.314.035.769-.454-.874-2.655Z" transform="translate(-547.1 -360.3)"/></g><g transform="translate(14.884 20.731)"><path class="ax" d="M524.373,342s4.682,4.4,7.477,5.381l.524,4.228-8.875-8.455Z" transform="translate(-523.5 -342)"/></g><g transform="translate(11.086 20.794)"><path class="w" d="M520.446,359.167c-1.852-.664-9.5-4.367-7.477-8.735,2.026-4.332,7.3-2.026,11.25-.28,4.123,1.852,13.906,7.512,14.674,6.988s4.158-5.381,4.752-6.429c.594-1.083,4.3-7.966,4.647-8.49s5.7,3.983,5.7,3.983-9.608,17.085-12.194,19.811C539.209,368.775,520.446,359.167,520.446,359.167Z" transform="translate(-512.631 -342.179)"/></g><g transform="translate(16.002 89.666)"><path class="aq" d="M530.893,553.765h0c-.384,1.4-.769,2.69-1.153,3.7h0L526.7,539.3C527.434,541.047,530.893,553.765,530.893,553.765Z" transform="translate(-526.7 -539.3)"/></g><g transform="translate(16.142 36.454)"><path class="ay" d="M535.9,394.2l-8.8-7.2c2.341,1.258,8.071,3.878,8.8,4.193C535.87,392.206,535.9,393.184,535.9,394.2Z" transform="translate(-527.1 -387)"/></g><g transform="translate(17.714 19.823)"><path class="ac" d="M537.051,340.518a6.874,6.874,0,0,0-.07.908,3.853,3.853,0,0,1-.07.629A9.156,9.156,0,0,1,531.6,339.4C532.788,340.308,537.051,340.518,537.051,340.518Z" transform="translate(-531.6 -339.4)"/></g></g><g class="az" transform="translate(286.886 47.762)"><path class="ba" d="M872.232,145.435h4.612l-1.4-2.935H870.8Z" transform="translate(-853.435 -140.474)"/><path class="bb" d="M866.033,145.435h1.083l-1.4-2.935H864.6Z" transform="translate(-849.401 -140.474)"/><path class="bc" d="M821.729,138.167h18.727l-.594-1.467H821.1Z" transform="translate(-821.1 -136.7)"/></g><g transform="translate(179.378)"><path class="bd" d="M520.912,2.376h-7.093a.425.425,0,0,1-.419-.419V.419A.425.425,0,0,1,513.819,0h7.093a.425.425,0,0,1,.419.419V1.957A.425.425,0,0,1,520.912,2.376Z" transform="translate(-513.4)"/><g transform="translate(0 5.765)"><path class="be" d="M520.912,18.876h-7.093a.425.425,0,0,1-.419-.419V16.919a.425.425,0,0,1,.419-.419h7.093a.425.425,0,0,1,.419.419v1.5A.458.458,0,0,1,520.912,18.876Z" transform="translate(-513.4 -16.5)"/></g><g transform="translate(0 11.495)"><path class="bf" d="M520.912,35.276h-7.093a.425.425,0,0,1-.419-.419V33.319a.425.425,0,0,1,.419-.419h7.093a.425.425,0,0,1,.419.419v1.537A.451.451,0,0,1,520.912,35.276Z" transform="translate(-513.4 -32.9)"/></g><g transform="translate(11.215)"><path class="bg" d="M547.317,2.376h-1.4a.425.425,0,0,1-.419-.419V.419A.425.425,0,0,1,545.919,0h1.4a.425.425,0,0,1,.419.419V1.957A.4.4,0,0,1,547.317,2.376Z" transform="translate(-545.5)"/></g><g transform="translate(11.215 5.765)"><path class="bh" d="M547.317,18.876h-1.4a.425.425,0,0,1-.419-.419V16.919a.425.425,0,0,1,.419-.419h1.4a.425.425,0,0,1,.419.419v1.5A.433.433,0,0,1,547.317,18.876Z" transform="translate(-545.5 -16.5)"/></g><g transform="translate(11.215 11.495)"><path class="bi" d="M547.317,35.276h-1.4a.425.425,0,0,1-.419-.419V33.319a.425.425,0,0,1,.419-.419h1.4a.425.425,0,0,1,.419.419v1.537A.425.425,0,0,1,547.317,35.276Z" transform="translate(-545.5 -32.9)"/></g></g><g transform="translate(150.309 132.839)"><path class="bj" d="M443.916,385.476h8.316l-2.551-5.276H441.4Z" transform="translate(-437.487 -380.2)"/><path class="bk" d="M432.751,385.476h1.992l-2.551-5.276H430.2Z" transform="translate(-430.2 -380.2)"/></g></svg>