<svg xmlns="http://www.w3.org/2000/svg" width="68" height="68" viewBox="0 0 68 68"><defs><style>.a{fill:#e1eefc;}.b{fill:#0e71eb;}</style></defs><g transform="translate(-526.711 -466.456)"><circle class="a" cx="34" cy="34" r="34" transform="translate(526.711 466.456)"/><path class="b" d="M574.2,502.187v13.218a3.18,3.18,0,0,1-2.94,3.4,3.145,3.145,0,0,1-.485,0H550.311a3.16,3.16,0,0,1-3.37-2.936,3.085,3.085,0,0,1,0-.45V488.844a3.151,3.151,0,0,1,3.312-3.372c.782-.014,1.563.028,2.345-.014a1.211,1.211,0,0,0,.782-.414,2.439,2.439,0,0,1,2.117-1.064c.213.014.426-.014.64,0a2.684,2.684,0,0,0,2.174-.7,3.485,3.485,0,0,1,4.818.242,1.475,1.475,0,0,0,1.194.469c.455-.028.9.014,1.35-.014a2.472,2.472,0,0,1,2.061,1.038,1.414,1.414,0,0,0,.853.441c.782.057,1.563,0,2.345.028a3.142,3.142,0,0,1,3.259,3.018c0,.108,0,.215,0,.322C574.2,493.275,574.2,497.738,574.2,502.187ZM553,487.036a1.2,1.2,0,0,0-.185-.057c-.824,0-1.663-.014-2.487-.014-1.464,0-1.9.426-1.9,1.9v26.5c0,1.563.4,1.961,1.99,1.961h20.377c1.507,0,1.933-.426,1.933-1.947V488.955a7.565,7.565,0,0,0-.028-.782,1.22,1.22,0,0,0-1.137-1.18c-1.123-.071-2.26-.014-3.383-.014a3.331,3.331,0,0,1-3.535,3.013c-2.743-.1-5.5-.1-8.244,0A3.306,3.306,0,0,1,553,487.036Zm7.5,1.492h4.122c1.677,0,2.175-.583,2.047-2.274a.792.792,0,0,0-.716-.858.807.807,0,0,0-.184.005c-.782,0-1.563.043-2.345-.028a1.434,1.434,0,0,1-.938-.455,2.284,2.284,0,0,0-3.838,0,1.511,1.511,0,0,1-.938.455c-.773.071-1.555-.014-2.337.043a1.038,1.038,0,0,0-.8.426,1.8,1.8,0,0,0,1.672,2.672c1.417.03,2.838.014,4.259.014Z"/><path class="b" d="M554.49,500.61h-2.061a.8.8,0,0,1-.924-.91v-4.192c0-.569.256-.91.839-.924,1.45-.014,2.885-.014,4.335,0,.625,0,.9.384.9.966,0,1.322-.014,2.658-.043,3.98-.014.867-.227,1.066-1.109,1.08ZM553,499.075h3v-2.956h-3Z"/><path class="b" d="M554.491,512.705c-.711,0-1.421-.014-2.132,0-.6.014-.867-.3-.867-.881v-4.193c0-.611.27-.924.91-.91q2.132.021,4.264,0a.818.818,0,0,1,.9.938c.014,1.35-.014,2.7-.043,4.051-.014.8-.213.981-1.038.981C555.812,512.705,555.158,512.705,554.491,512.705ZM556,508.157c-.91,0-1.748-.028-2.573.014a.681.681,0,0,0-.441.441,18.763,18.763,0,0,0,0,2.2c.014.156.242.426.384.426.867.043,1.734.014,2.629.014Z"/><path class="b" d="M564.382,509.734a4.367,4.367,0,0,1,3.425,1.563c.327.4.526.867.043,1.251s-.839.128-1.18-.327a3.06,3.06,0,0,0-4.319-.274,2.993,2.993,0,0,0-.286.288c-.313.412-.668.654-1.123.327-.526-.355-.355-.81-.028-1.222A4.26,4.26,0,0,1,564.382,509.734Z"/><path class="b" d="M564.382,500.61a4.342,4.342,0,0,1-3.5-1.62c-.327-.412-.483-.867.043-1.222.469-.327.81-.071,1.123.341a3.088,3.088,0,0,0,4.619.014c.341-.455.711-.682,1.18-.313s.3.782-.014,1.194A4.31,4.31,0,0,1,564.382,500.61Z"/><path class="b" d="M567.481,507.6c-.284.185-.54.469-.839.526-.441.085-.7-.242-.7-.682s.256-.768.7-.682a2.688,2.688,0,0,1,.839.526Z"/><path class="b" d="M562.918,507.631c-.284.171-.554.455-.853.5-.441.071-.682-.27-.682-.711s.284-.753.725-.654a2.734,2.734,0,0,1,.824.554A2.481,2.481,0,0,1,562.918,507.631Z"/><path class="b" d="M561.952,496.161c-.185-.27-.483-.526-.554-.824a.557.557,0,0,1,.654-.7,1.022,1.022,0,0,1,.711.668c.028.256-.327.569-.512.853A2.133,2.133,0,0,0,561.952,496.161Z"/><path class="b" d="M566.785,494.484c.2.27.569.554.54.8-.028.27-.426.512-.654.753-.242-.227-.64-.441-.682-.711-.043-.242.3-.554.468-.839A1.287,1.287,0,0,0,566.785,494.484Z"/></g></svg>