<svg xmlns="http://www.w3.org/2000/svg" width="68" height="68" viewBox="0 0 68 68"><defs><style>.a{fill:#e1eefc;}.b{fill:#0e71eb;}</style></defs><g transform="translate(-771.711 -351.456)"><circle class="a" cx="34" cy="34" r="34" transform="translate(771.711 351.456)"/><path class="b" d="M822.953,376.476v-.01c-.006-.023-.013-.046-.021-.068l-.006-.012a.575.575,0,0,0-.033-.06l-.008-.012a.576.576,0,0,0-.044-.053l-.007-.006-.025-.023-1.066-.88-3.5-2.893-.018-.012-.028-.019a.282.282,0,0,0-.038-.021l-.03-.014-.046-.014-.028-.008a.516.516,0,0,0-.078-.008H806.116a.418.418,0,0,0-.418.418v5.1h-1.259l-2.514-3.472a.465.465,0,0,0-.4-.252H793a1.674,1.674,0,0,0-1.672,1.672v.859H790.1a1.674,1.674,0,0,0-1.672,1.672V396.8a1.563,1.563,0,0,0,1.562,1.562h25.686a.24.24,0,0,0,.038,0h.112a1.868,1.868,0,0,0,1.865-1.865v-1.94h4.85a.418.418,0,0,0,.418-.418V376.554A.518.518,0,0,0,822.953,376.476Zm-4.563-2.808,2.758,2.277.232.191h-2.99Zm-26.231,2.16a.837.837,0,0,1,.836-.836h8.317l.61.843,1.96,2.709a.41.41,0,0,0,.039.045l.012.013a.293.293,0,0,0,.047.038l.009.007a.358.358,0,0,0,.058.032l.019.008a.27.27,0,0,0,.063.019h.018a.285.285,0,0,0,.066.007h1.479v1.669h-4.151l-2.513-3.447a1.375,1.375,0,0,0-.1-.128l-.023-.022-.018-.017-.033-.023a.178.178,0,0,0-.026-.015l-.018-.009a.4.4,0,0,0-.044-.018h0a.471.471,0,0,0-.063-.014h-6.544Zm-2.062,21.7a.836.836,0,0,1-.836-.836V378.36a.836.836,0,0,1,.836-.836h8.322l.614.841,1.957,2.684.017.018a.315.315,0,0,0,.034.039l.026.021a.266.266,0,0,0,.038.028l.028.016a.436.436,0,0,0,.044.021.129.129,0,0,0,.03.009l.048.013h11.981a.749.749,0,0,1,.727.77V396.59a1.841,1.841,0,0,0,.308.924Zm25.727,0a1.03,1.03,0,0,1-1.029-1.027v-.838a.422.422,0,0,0,0-.2v-.912h2.064v1.94h0a1.031,1.031,0,0,1-1.023,1.037h-.012Zm-1.029-3.805V381.841a1.84,1.84,0,0,0-.039-.232q-.009-.041-.021-.078c-.008-.025-.015-.051-.024-.076l-.018-.051-.034-.06-.024-.055c-.026-.055-.055-.108-.086-.16l-.032-.05c-.009-.015-.019-.03-.029-.045a1.587,1.587,0,0,0-.292-.31c-.015-.013-.031-.025-.047-.037l-.048-.035-.008-.005-.033-.022a1.311,1.311,0,0,0-.135-.078l-.01-.005-.069-.032a1.518,1.518,0,0,0-.433-.116l-.049-.005h0a.366.366,0,0,0-.047,0h-6.782V373.2h11.02v3.355a.418.418,0,0,0,.418.418h4.152v16.746Z"/><path class="b" d="M811.755,388.954h-7a.418.418,0,1,0,0,.836h7a.418.418,0,0,0,0-.836Z"/><path class="b" d="M811.755,391.127h-7a.418.418,0,0,0,0,.836h7a.418.418,0,0,0,0-.836Z"/><path class="b" d="M804.752,387.617h2.684a.418.418,0,0,0,0-.836h-2.684a.418.418,0,1,0,0,.836Z"/><path class="b" d="M801.8,385.041h-9.53a.418.418,0,0,0-.418.418v7.022a.418.418,0,0,0,.418.418h9.53a.418.418,0,0,0,.418-.418v-7.022A.418.418,0,0,0,801.8,385.041Zm-.418,7.024H792.69v-6.186h8.694Z"/></g></svg>