<svg xmlns="http://www.w3.org/2000/svg" width="63.168" height="56.706" viewBox="0 0 63.168 56.706"><defs><style>.a{fill:#2785a2;}.b{isolation:isolate;}.c{fill:#287292;}</style></defs><g transform="translate(-660.71 -357.456)"><path class="a" d="M717.847,385.737h-2V368.909a5.485,5.485,0,0,0-5.484-5.49H700.1v-2h10.261a7.484,7.484,0,0,1,7.482,7.475Z"/><rect class="a" width="13.985" height="2" transform="translate(681.784 361.419)"/><path class="a" d="M668.192,405.575a7.491,7.491,0,0,1-7.482-7.474V368.909a7.492,7.492,0,0,1,7.476-7.49h9.262v2H668.2a5.493,5.493,0,0,0-5.491,5.489v29.177a5.493,5.493,0,0,0,5.483,5.49h26.2v2h-26.2Z"/><rect class="a" width="55.136" height="2" transform="translate(661.71 373.107)"/><path class="a" d="M679.626,366.635a3.15,3.15,0,0,1-3.15-3.146V360.61a3.15,3.15,0,0,1,3.146-3.154h0a3.157,3.157,0,0,1,3.158,3.147v2.878a3.185,3.185,0,0,1-3.148,3.154h-.01Zm.006-7.179h0a1.15,1.15,0,0,0-.819.338,1.138,1.138,0,0,0-.336.815v2.872a1.149,1.149,0,0,0,1.149,1.154,1.175,1.175,0,0,0,1.159-1.161V360.61A1.155,1.155,0,0,0,679.632,359.456Z"/><path class="a" d="M697.948,366.635a3.151,3.151,0,0,1-3.15-3.147V360.61a3.154,3.154,0,0,1,3.145-3.154h0A3.156,3.156,0,0,1,701.1,360.6v2.878a3.182,3.182,0,0,1-3.147,3.154h-.01Zm.006-7.179h0a1.153,1.153,0,0,0-1.154,1.153v2.872a1.151,1.151,0,0,0,1.148,1.154,1.172,1.172,0,0,0,1.159-1.16V360.61A1.154,1.154,0,0,0,697.954,359.456Z"/><path class="a" d="M709.15,414.162a14.727,14.727,0,1,1,14.728-14.726A14.743,14.743,0,0,1,709.15,414.162Zm0-27.454a12.727,12.727,0,1,0,12.728,12.728A12.742,12.742,0,0,0,709.15,386.708Z"/><rect class="a" width="8.931" height="2" transform="translate(670.699 382.497)"/><rect class="a" width="8.932" height="2" transform="translate(683.736 382.497)"/><rect class="a" width="8.931" height="2" transform="translate(670.699 391.887)"/><rect class="a" width="8.932" height="2" transform="translate(683.736 391.887)"/><g class="b"><g class="b"><path class="c" d="M710.445,402.486a1.213,1.213,0,1,1,1.314-1.2A1.227,1.227,0,0,1,710.445,402.486Zm-1.234-9.554h2.4l-.26,6.226h-1.884Z"/></g></g></g></svg>