<svg xmlns="http://www.w3.org/2000/svg" width="70" height="70" viewBox="0 0 70 70"><defs><style>.a{fill:#e1eefc;}.b{fill:#0e71eb;}</style></defs><g transform="translate(-659.709 -460.456)"><circle class="a" cx="35" cy="35" r="35" transform="translate(659.709 460.456)"/><path class="b" d="M681.352,497.151V484.039a3.14,3.14,0,0,1,2.9-3.366,3.068,3.068,0,0,1,.429,0c.451,0,.888-.014,1.339,0a2.046,2.046,0,0,0,2.129-.8c.268-.395,1-.508,1.537-.663a2.894,2.894,0,0,1,.987-.014,2.307,2.307,0,0,0,1.889-.652,3.5,3.5,0,0,1,4.85.169,1.573,1.573,0,0,0,1.255.479c.4-.028.8.014,1.2-.014a2.424,2.424,0,0,1,2.171,1.071,1.11,1.11,0,0,0,.719.395c.789.042,1.593,0,2.4.014a3.128,3.128,0,0,1,3.259,2.989c0,.1,0,.208,0,.311v26.5a3.134,3.134,0,0,1-3.005,3.256c-.075,0-.149,0-.223,0H684.595a3.1,3.1,0,0,1-3.243-2.95,2.783,2.783,0,0,1,0-.289Zm5.992-15h-2.552c-1.565,0-1.974.395-1.974,1.946v26.2c0,1.565.4,1.96,1.946,1.96h20.288c1.438,0,1.861-.437,1.861-1.9V484.082a6.065,6.065,0,0,0-.028-.7,1.234,1.234,0,0,0-1.184-1.2c-1.1-.07-2.2-.014-3.285-.014a3.334,3.334,0,0,1-3.645,2.99h-.006c-2.693-.1-5.4-.028-8.106-.028a3.14,3.14,0,0,1-3.314-2.956v-.023Zm7.542,1.565H698.9c1.635,0,2.115-.55,2.016-2.2-.042-.677-.352-.916-.973-.9-.747.014-1.508.042-2.256-.014a1.471,1.471,0,0,1-.93-.465A2.266,2.266,0,0,0,693,480.1a1.514,1.514,0,0,1-.973.493c-.761.07-1.551-.014-2.326.042a1.092,1.092,0,0,0-.761.367,1.819,1.819,0,0,0,1.579,2.7c1.466.028,2.918.014,4.37.014Z"/><path class="b" d="M698.058,500.914c1.2,1.184,2.368,2.34,3.539,3.482l.4.395c.367.352.55.747.155,1.156s-.8.24-1.156-.127c-.8-.819-1.639-1.619-2.439-2.438-.479-.479-.945-.987-1.452-1.523a5.881,5.881,0,0,1-5.47,1.029,6.1,6.1,0,0,1-3.355-2.65,5.939,5.939,0,0,1,8.924-7.585A5.912,5.912,0,0,1,698.058,500.914Zm-.155-3.736a4.382,4.382,0,0,0-4.257-4.5c-.1,0-.208,0-.311,0a4.54,4.54,0,1,0,4.568,4.512Z"/><path class="b" d="M692.574,497.785c.888-.916,1.649-1.706,2.411-2.481.31-.324.691-.465,1.057-.155a.68.68,0,0,1,.174.946.668.668,0,0,1-.146.154c-.959.987-1.946,1.96-2.932,2.932a.723.723,0,0,1-1.019.065.5.5,0,0,1-.052-.051q-.741-.7-1.438-1.438a.663.663,0,0,1-.136-.929.647.647,0,0,1,.108-.114.7.7,0,0,1,.989-.019.958.958,0,0,1,.068.075A8.82,8.82,0,0,1,692.574,497.785Z"/></g></svg>